<svg xmlns="http://www.w3.org/2000/svg" width="678.7" height="164.0" viewBox="0 0 678.7 164.0" font-family="sans-serif"><defs>
  <linearGradient id="ring" x1="0" y1="0" x2="1" y2="1">
    <stop offset="0" stop-color="#6B5BE6"/><stop offset="1" stop-color="#2E2A78"/></linearGradient>
  <linearGradient id="ringD" x1="0" y1="0" x2="1" y2="1">
    <stop offset="0" stop-color="#A99BFF"/><stop offset="1" stop-color="#8E7BFF"/></linearGradient>
  <linearGradient id="dot" x1="0" y1="1" x2="1" y2="0">
    <stop offset="0" stop-color="#FF6A5B"/><stop offset="1" stop-color="#FFB13D"/></linearGradient>
  <linearGradient id="appgrad" x1="0" y1="0" x2="1" y2="1">
    <stop offset="0" stop-color="#6B5BE6"/><stop offset="1" stop-color="#2E2A78"/></linearGradient>
</defs><rect width="678.7" height="164.0" rx="0" fill="#15131F"/><g transform="translate(22.00,22.00) scale(1.0000)"><path d="M 103.04 50.85 A 44.0 44.0 0 1 1 69.15 16.96" fill="none" stroke="url(#ringD)" stroke-width="11.0" stroke-linecap="round"/><circle cx="43.74" cy="76.26" r="3.0" fill="url(#dot)"/><circle cx="63.54" cy="56.46" r="4.8" fill="url(#dot)"/><circle cx="83.33" cy="36.67" r="7.2" fill="url(#dot)"/></g><g><path transform="translate(182.000,92.000) scale(0.08600,-0.08600)" d="M537 519V390H667V-97H828V845H667V519ZM65 769V642H330V529H66V116H146C295 116 424 120 562 142L548 272C439 254 338 249 226 248V403H489V769Z" fill="#F4F3FA"/><path transform="translate(261.120,92.000) scale(0.08600,-0.08600)" d="M656 844V311H818V844ZM497 294C299 294 173 220 173 99C173 -23 299 -96 497 -96C695 -96 822 -23 822 99C822 220 695 294 497 294ZM497 166C607 166 661 148 661 99C661 50 607 31 497 31C387 31 334 50 334 99C334 148 387 166 497 166ZM86 477V346H170C306 346 460 354 615 387L598 516C476 492 357 481 246 478V787H86Z" fill="#F4F3FA"/><path transform="translate(340.240,92.000) scale(0.08600,-0.08600)" d="M36 358V229H210V-97H372V229H537V-97H699V229H885V358H770C800 509 800 617 800 714V798H130V671H644L642 593L97 579L115 444L631 470C626 435 620 398 612 358Z" fill="#F4F3FA"/><path transform="translate(419.360,92.000) scale(0.08600,-0.08600)" d="M693 844V-94H846V844ZM57 757V631H232V506H58V118H127C244 118 346 121 460 142L447 271C366 257 292 252 214 250V381H387V757ZM502 830V534H422V403H502V-52H651V830Z" fill="#F4F3FA"/><path transform="translate(498.480,92.000) scale(0.08600,-0.08600)" d="M658 845V-97H820V845ZM309 783C165 783 58 652 58 444C58 234 165 103 309 103C453 103 560 234 560 444C560 652 453 783 309 783ZM309 636C367 636 405 575 405 444C405 311 367 250 309 250C251 250 213 311 213 444C213 575 251 636 309 636Z" fill="#F4F3FA"/><path transform="translate(577.600,92.000) scale(0.08600,-0.08600)" d="M527 527V397H670V-97H831V845H670V527ZM77 770V108H155C302 108 427 110 563 131L549 258C443 243 346 238 238 237V385H485V510H238V640H512V770Z" fill="#F4F3FA"/></g><g><path transform="translate(185.000,138.000) scale(0.02100,-0.02100)" d="M97 0H525V99H213V737H97Z" fill="#9D9AC0"/><path transform="translate(203.963,138.000) scale(0.02100,-0.02100)" d="M97 0H543V99H213V336H483V434H213V639H532V737H97Z" fill="#9D9AC0"/><path transform="translate(223.808,138.000) scale(0.02100,-0.02100)" d="M0 0H119L181 209H437L499 0H622L378 737H244ZM209 301 238 400C262 480 285 561 307 645H311C334 562 356 480 380 400L409 301Z" fill="#9D9AC0"/><path transform="translate(244.115,138.000) scale(0.02100,-0.02100)" d="M213 390V643H324C430 643 489 612 489 523C489 434 430 390 324 390ZM499 0H630L450 312C543 341 604 409 604 523C604 683 490 737 338 737H97V0H213V297H333Z" fill="#9D9AC0"/><path transform="translate(265.136,138.000) scale(0.02100,-0.02100)" d="M97 0H207V346C207 427 198 512 193 588H197L274 434L518 0H637V737H526V393C526 313 536 224 542 149H537L460 304L216 737H97Z" fill="#9D9AC0"/><path transform="translate(287.795,138.000) scale(0.02100,-0.02100)" d="M97 0H213V737H97Z" fill="#9D9AC0"/><path transform="translate(301.529,138.000) scale(0.02100,-0.02100)" d="M97 0H207V346C207 427 198 512 193 588H197L274 434L518 0H637V737H526V393C526 313 536 224 542 149H537L460 304L216 737H97Z" fill="#9D9AC0"/><path transform="translate(324.188,138.000) scale(0.02100,-0.02100)" d="M398 -14C498 -14 581 24 630 73V392H379V296H524V124C499 102 455 88 410 88C257 88 176 196 176 370C176 543 267 649 404 649C475 649 520 619 557 583L619 657C575 704 505 750 401 750C205 750 56 606 56 367C56 125 201 -14 398 -14Z" fill="#9D9AC0"/><path transform="translate(358.124,138.000) scale(0.02100,-0.02100)" d="M384 -14C480 -14 554 24 614 93L551 167C507 119 456 88 389 88C259 88 176 196 176 370C176 543 265 649 392 649C451 649 497 621 536 583L598 657C553 706 481 750 390 750C203 750 56 606 56 367C56 125 199 -14 384 -14Z" fill="#9D9AC0"/><path transform="translate(378.935,138.000) scale(0.02100,-0.02100)" d="M367 -14C530 -14 640 76 640 316V737H528V309C528 142 460 88 367 88C275 88 209 142 209 309V737H93V316C93 76 204 -14 367 -14Z" fill="#9D9AC0"/><path transform="translate(401.573,138.000) scale(0.02100,-0.02100)" d="M213 390V643H324C430 643 489 612 489 523C489 434 430 390 324 390ZM499 0H630L450 312C543 341 604 409 604 523C604 683 490 737 338 737H97V0H213V297H333Z" fill="#9D9AC0"/><path transform="translate(422.594,138.000) scale(0.02100,-0.02100)" d="M0 0H119L181 209H437L499 0H622L378 737H244ZM209 301 238 400C262 480 285 561 307 645H311C334 562 356 480 380 400L409 301Z" fill="#9D9AC0"/><path transform="translate(442.901,138.000) scale(0.02100,-0.02100)" d="M246 0H364V639H580V737H31V639H246Z" fill="#9D9AC0"/><path transform="translate(462.977,138.000) scale(0.02100,-0.02100)" d="M377 -14C567 -14 698 134 698 371C698 608 567 750 377 750C188 750 56 609 56 371C56 134 188 -14 377 -14ZM377 88C255 88 176 199 176 371C176 543 255 649 377 649C499 649 579 543 579 371C579 199 499 88 377 88Z" fill="#9D9AC0"/><path transform="translate(486.056,138.000) scale(0.02100,-0.02100)" d="M213 390V643H324C430 643 489 612 489 523C489 434 430 390 324 390ZM499 0H630L450 312C543 341 604 409 604 523C604 683 490 737 338 737H97V0H213V297H333Z" fill="#9D9AC0"/></g></svg>